<?xml version="1.0" encoding="UTF-8" standalone="no"?>
<svg
   xmlns:dc="http://purl.org/dc/elements/1.1/"
   xmlns:cc="http://creativecommons.org/ns#"
   xmlns:rdf="http://www.w3.org/1999/02/22-rdf-syntax-ns#"
   xmlns:svg="http://www.w3.org/2000/svg"
   xmlns="http://www.w3.org/2000/svg"
   width="578.54999mm"
   height="88mm"
   viewBox="0 0 578.54999 88.000001"
   version="1.1"
   id="svg8">
  <defs
     id="defs2" />
  <metadata
     id="metadata5">
    <rdf:RDF>
      <cc:Work
         rdf:about="">
        <dc:format>image/svg+xml</dc:format>
        <dc:type
           rdf:resource="http://purl.org/dc/dcmitype/StillImage" />
        <dc:title></dc:title>
      </cc:Work>
    </rdf:RDF>
  </metadata>
  <g
     id="layer1">
    <g
       id="g850"
       transform="translate(-3.2138947,5.2613395)">
      <g
         id="g893"
         transform="translate(0.20565553,-6.101114)">
        <rect
           style="opacity:0.993;fill:#000000;stroke-width:0.176535"
           id="rect34"
           width="362.95099"
           height="88"
           x="3.0082393"
           y="0.83977449" />
        <rect
           style="opacity:0.993;fill:#ffffff;stroke-width:0.212333"
           id="rect36"
           width="215.59898"
           height="88"
           x="365.95923"
           y="0.83977449" />
        <g
           id="g32">
          <g
             aria-label="mor://a/ous"
             id="text835"
             style="font-weight:bold;font-size:112px;line-height:1.25;font-family:'Zilla Slab';-inkscape-font-specification:'Zilla Slab Bold';stroke-width:0.264583">
            <path
               d="M 103.89987,82.807777 H 82.731875 v -28.448 q 0,-6.496 -2.24,-9.296 -2.128,-2.8 -6.384,-2.8 -5.152,0 -7.504,3.36 -2.24,3.36 -2.24,8.624 v 17.696 h 6.72 v 10.864 h -21.168 v -28.448 q 0,-6.496 -2.24,-9.296 -2.128,-2.8 -6.384,-2.8 -5.264,0 -7.504,3.36 -2.24,3.36 -2.24,8.624 v 17.696 h 9.632 v 10.864 h -30.8 v -10.864 h 6.72 v -28.672 h -6.608 v -10.976 h 21.056 v 7.616 q 4.816,-8.624 15.344,-8.624 5.488,0 10.08,2.688 4.592,2.688 6.384,8.176 4.48,-10.864 16.464,-10.864 6.832,0 12.096,4.256 5.264,4.256 5.264,13.216 v 23.184 h 6.719995 z"
               style="fill:#ffffff"
               id="path871" />
            <path
               d="m 161.57981,57.607777 q 0,11.984 -7.84,19.152 -7.84,7.168 -19.936,7.168 -11.648,0 -19.04,-6.72 -7.28,-6.832 -7.28,-19.04 0,-11.088 6.72,-19.04 6.72,-7.952 20.384,-7.952 13.664,0 20.272,7.952 6.72,7.84 6.72,18.48 z m -14.896,-0.448 q 0,-7.728 -3.584,-11.312 -3.584,-3.584 -8.736,-3.584 -5.6,0 -8.848,4.032 -3.136,3.92 -3.136,11.088 0,6.496 2.912,10.976 3.024,4.48 8.96,4.48 5.6,0 8.96,-4.144 3.472,-4.256 3.472,-11.536 z"
               style="fill:#ffffff"
               id="path873" />
            <path
               d="m 198.98768,31.623777 q 2.128,0 4.704,0.672 2.688,0.56 5.264,2.128 l 2.24,17.696 -10.976,1.232 -1.904,-8.624 q -2.24,-1.344 -3.92,-1.344 -2.464,0 -4.368,1.904 -1.792,1.904 -1.792,5.6 v 21.056 h 8.96 v 10.864 h -30.128 v -10.864 h 6.72 v -28.672 h -7.28 v -10.976 h 20.608 v 9.632 q 1.232,-4.368 3.92,-7.28 2.8,-3.024 7.952,-3.024 z"
               style="fill:#ff0000"
               id="path875" />
            <path
               d="m 219.81968,50.439777 v -18.144 h 15.008 v 18.144 z m 0,32.368 v -18.144 h 15.008 v 18.144 z"
               style="fill:#ffffff"
               id="path877" />
            <path
               d="m 281.41959,5.7517774 -21.84,77.0559996 h -14.224 l 21.84,-77.0559996 z"
               style="fill:#ffffff"
               id="path879" />
            <path
               d="m 310.09143,5.7517774 -21.84,77.0559996 h -14.224 l 21.84,-77.0559996 z"
               style="fill:#ffffff"
               id="path881" />
            <path
               d="m 315.46717,35.879777 q 6.608,-2.688 10.976,-3.584 4.48,-1.008 10.64,-1.008 8.176,0 14.112,4.256 5.936,4.256 5.936,12.88 v 21.952 q 0,3.92 3.472,3.92 1.008,0 2.128,-0.336 l 0.112,7.616 q -4.368,2.352 -9.072,2.352 -9.968,0 -11.088,-9.968 v -0.112 q -2.128,3.808 -6.16,6.944 -3.92,3.136 -10.08,3.136 -5.488,0 -10.528,-3.248 -5.04,-3.248 -5.04,-11.2 0,-9.296 7.392,-12.32 7.504,-3.024 16.128,-3.024 4.816,0 8.288,0.448 v -1.68 q 0,-3.92 -1.12,-7.616 -1.008,-3.696 -7.168,-3.696 -2.24,0 -4.144,0.336 -1.792,0.224 -3.584,1.12 l -1.904,7.168 -11.536,-1.232 z m 27.216,26.32 v -0.672 q -1.792,-0.224 -3.696,-0.448 -1.792,-0.224 -3.584,-0.224 -3.808,0 -6.72,1.456 -2.912,1.344 -2.912,5.488 0,2.464 1.344,4.144 1.344,1.68 4.592,1.68 3.808,0 7.056,-2.688 3.36,-2.8 3.92,-8.736 z"
               style="fill:#ffffff"
               id="path883" />
            <path
               d="m 404.95502,5.7517774 -21.84,77.0559996 h -14.224 l 21.84,-77.0559996 z"
               style="font-size:112px;fill:#000000;fill-opacity:1;stroke-width:0.264583"
               id="path885" />
            <path
               d="m 457.70686,57.607777 q 0,11.984 -7.84,19.152 -7.84,7.168 -19.936,7.168 -11.648,0 -19.04,-6.72 -7.28,-6.832 -7.28,-19.04 0,-11.088 6.72,-19.04 6.72,-7.952 20.384,-7.952 13.664,0 20.272,7.952 6.72,7.84 6.72,18.48 z m -14.896,-0.448 q 0,-7.728 -3.584,-11.312 -3.584,-3.584 -8.736,-3.584 -5.6,0 -8.848,4.032 -3.136,3.92 -3.136,11.088 0,6.496 2.912,10.976 3.024,4.48 8.96,4.48 5.6,0 8.96,-4.144 3.472,-4.256 3.472,-11.536 z"
               style="font-size:112px;fill:#000000;fill-opacity:1;stroke-width:0.264583"
               id="path887" />
            <path
               d="m 523.89872,82.807777 h -21.728 v -7.728 q -5.04,8.736 -16.24,8.736 -7.168,0 -12.432,-4.256 -5.264,-4.256 -5.264,-13.216 v -23.184 h -6.72 v -10.864 h 21.168 v 28.448 q 0,6.608 2.128,9.408 2.24,2.688 6.496,2.688 5.152,0 7.952,-3.36 2.912,-3.36 2.912,-8.624 v -17.696 h -8.176 v -10.864 h 22.624 v 39.648 h 7.28 z"
               style="font-size:112px;fill:#000000;fill-opacity:1;stroke-width:0.264583"
               id="path889" />
            <path
               d="m 574.18659,67.351777 q 0,8.4 -6.72,12.544 -6.608,4.032 -17.248,4.032 -5.488,0 -11.088,-1.12 -5.488,-1.232 -10.528,-3.808 l 2.016,-14.112 11.2,1.232 v 6.272 q 2.016,0.672 4.256,0.896 2.24,0.112 3.36,0.112 4.144,0 7.168,-1.344 3.024,-1.344 3.024,-4.032 0,-3.248 -4.592,-4.256 -4.592,-1.008 -10.64,-2.016 -6.048,-1.008 -10.64,-4.144 -4.592,-3.136 -4.592,-10.64 0,-9.296 7.168,-12.432 7.28,-3.248 15.008,-3.248 10.08,0 18.928,4.592 l 1.232,12.88 -11.2,1.232 -0.896,-7.056 q -3.696,-1.232 -7.952,-1.232 -2.8,0 -4.816,1.232 -1.904,1.12 -1.904,3.584 0,3.248 4.368,4.368 4.48,1.008 10.304,2.016 5.936,1.008 10.304,4.144 4.48,3.024 4.48,10.304 z"
               style="font-size:112px;fill:#000000;fill-opacity:1;stroke-width:0.264583"
               id="path891" />
          </g>
          <path
             id="rect24"
             style="opacity:0.993;fill:#ff0000;stroke-width:0.106303"
             transform="matrix(1,0,-0.30371076,0.95276428,0,0)"
             d="m 255.28902,21.552446 h 68.87647 v 11.832398 h -68.87647 z" />
        </g>
      </g>
    </g>
  </g>
</svg>
